<?xml version="1.0" encoding="UTF-8" standalone="no"?>
<svg
   xmlns:dc="http://purl.org/dc/elements/1.1/"
   xmlns:cc="http://creativecommons.org/ns#"
   xmlns:rdf="http://www.w3.org/1999/02/22-rdf-syntax-ns#"
   xmlns:svg="http://www.w3.org/2000/svg"
   xmlns="http://www.w3.org/2000/svg"
   viewBox="0 0 1587.4016 1122.5197"
   height="1122.5197"
   width="1587.4016"
   xml:space="preserve"
   id="svg2"
   version="1.1"><metadata
     id="metadata8"><rdf:RDF><cc:Work
         rdf:about=""><dc:format>image/svg+xml</dc:format><dc:type
           rdf:resource="http://purl.org/dc/dcmitype/StillImage" /></cc:Work></rdf:RDF></metadata><defs
     id="defs6" /><g
     transform="matrix(1.3333333,0,0,-1.3333333,0,1122.5197)"
     id="g10"><g
       id="g12"><path
         id="path14"
         style="fill:#373535;fill-opacity:1;fill-rule:evenodd;stroke:none"
         d="m 551.3695,450.4484 c 3.746,3.0702 25.1943,15.7706 30.0722,16.668 l 0.0448,-41.2222 c -13.0065,1.6427 -27.6631,15.4752 -30.117,24.5542 z m -4.409,10.5753 c -1.4769,15.9497 -0.125,24.8567 7.2394,36.3449 5.0113,7.8177 16.2995,17.8504 27.2789,18.6795 -0.0969,-21.8489 3.4588,-33.6935 -13.2381,-43.6297 -5.8555,-3.4847 -16.1195,-10.2433 -21.2802,-11.3947 z m 44.8333,-47.1583 0.0323,59.5887 -4.5842,2.825 c 3.8152,11.1102 4.6055,-1.9255 4.5961,23.1815 -0.003,9.5391 -0.0385,19.0922 0.0139,28.6291 -21.4688,3.5648 -55.8884,-20.9483 -55.9406,-56.6306 -0.051,-34.8216 31.2262,-59.9927 55.8825,-57.5937" /><path
         id="path16"
         style="fill:#373535;fill-opacity:1;fill-rule:evenodd;stroke:none"
         d="m 609.296,516.3678 c 14.021,-1.8549 34.0121,-20.8927 33.2652,-35.9115 -4.4431,-3.3727 -29.1549,-17.7069 -33.5007,-19.0123 z m -10.6137,-102.4236 10.2313,0.638 0.1752,33.8664 c 3.4954,3.1167 31.3342,19.0117 35.1182,20.033 -0.7592,-21.6082 -15.9444,-32.0074 -17.5765,-35.0376 l 6.5888,-6.8723 c 24.3598,16.0114 32.2841,64.6401 -1.3907,90.3228 -6.1741,4.7089 -21.8795,13.0031 -33.1755,11.1722 z" /><path
         id="path18"
         style="fill:#373535;fill-opacity:1;fill-rule:evenodd;stroke:none"
         d="m 588.5252,536.7129 c 37.9851,4.8938 68.6945,-24.8802 72.5916,-57.6073 4.6312,-38.8891 -24.2397,-70.0594 -57.8022,-73.6402 -39.0625,-4.1677 -69.9811,23.277 -73.9573,58.3203 -4.064,35.8192 20.6402,67.9632 59.1679,72.9272 z m 45.9575,-125.3123 c 4.25,4.5652 8.9615,7.2043 12.7185,11.2768 32.0828,34.7763 22.6392,87.4117 -17.4365,110.3426 -51.2277,27.3197 -108.3328,-11.7321 -105.5837,-65.5699 2.0588,-40.3087 36.4376,-68.7595 74.1129,-67.1752 17.8024,0.7487 22.5987,5.4893 36.1888,11.1257" /><path
         id="path20"
         style="fill:#373535;fill-opacity:1;fill-rule:evenodd;stroke:none"
         d="m 636.0341,408.5785 c -2.6935,1.241 -3.7258,-2.4991 -1.5514,2.8221 -13.5901,-5.6364 -18.3864,-10.377 -36.1888,-11.1257 -37.6753,-1.5843 -72.0541,26.8665 -74.1129,67.1752 -2.7491,53.8378 54.356,92.8896 105.5837,65.5699 0.2072,0.3583 0.4102,0.8115 0.6106,1.0814 0.1602,0.2151 0.428,0.6004 0.5873,0.7991 0.1599,0.2009 0.7484,0.4901 1.0823,0.4994 -6.7464,6.6093 -27.4856,10.3502 -38.8142,10.0857 -39.8988,-0.9326 -74.2893,-34.3854 -72.6395,-77.0468 2.1339,-55.1843 63.6281,-92.4483 115.4429,-59.8603" /><path
         id="path22"
         style="fill:#373535;fill-opacity:1;fill-rule:evenodd;stroke:none"
         d="m 629.7647,533.02 c 40.0757,-22.9309 49.5193,-75.5663 17.4365,-110.3426 -3.757,-4.0725 -8.4685,-6.7116 -12.7185,-11.2768 -2.1744,-5.3212 -1.1421,-1.5811 1.5514,-2.8221 19.3754,14.0451 34.9509,34.5018 33.9361,64.8881 -0.5023,15.0347 -5.6571,27.7761 -11.7082,37.7581 -4.9655,8.1907 -16.9861,20.7085 -26.2171,24.1752 -0.3339,-0.009 -0.9224,-0.2985 -1.0823,-0.4991 -0.1593,-0.199 -0.4271,-0.5843 -0.5873,-0.7994 -0.2004,-0.2699 -0.4034,-0.7231 -0.6106,-1.0814" /><path
         id="path24"
         style="fill:#373535;fill-opacity:1;fill-rule:evenodd;stroke:none"
         d="m 405.8796,341.5609 c 3.9835,-0.1366 5.2271,-1.4184 9.1536,-0.7064 4.2075,0.7642 2.4069,2.1028 7.1107,2.4517 7.1045,-21.9047 -19.7223,-24.0454 -16.2643,-1.7453 z m 0.0408,14.976 c 17.7058,16.5121 20.8052,-25.268 -0.2954,-9.2185 z m -2.1243,-33.0477 1.1248,3.9847 c 5.2257,-0.3765 0.722,0.1474 2.6464,-1.6144 6.2618,-6.8 25.7786,-0.4495 16.5566,18.5687 -2.8318,5.8399 1.8579,11.8556 -5.4022,16.8655 -2.594,1.7898 -5.7864,2.2658 -9.2988,1.0344 -9.6418,-3.3803 -0.2656,-0.7019 -7.0268,0.2608 -0.527,-5.3133 -1.7478,-36.6877 1.4,-39.0997" /><path
         id="path26"
         style="fill:#373535;fill-opacity:1;fill-rule:evenodd;stroke:none"
         d="m 500.9916,339.8134 c -2.9594,7.7289 7.6632,8.3537 4.9181,-0.3308 -5.7487,-2.0966 -4.2693,-0.059 -4.9181,0.3308 z m 20.3462,3.7938 c -22.081,1.7125 -7.4764,-0.2664 -14.7741,4.2257 -5.6821,3.4971 -9.4652,-1.5384 -8.7721,-8.6486 2.0111,-2.1979 5.0057,-5.8495 9.4614,-2.2456 3.3597,2.7179 -1.1069,4.273 11.2337,3.8399 -3.0174,-26.553 -40.9028,-13.0306 -30.3658,10.3356 4.4016,9.7606 10.4899,6.8709 13.5765,11.6958 -0.894,0.4504 -0.5448,0.7254 -2.2388,0.7628 -9.299,0.2058 -24.7382,-18.9437 -9.6276,-34.9795 11.6119,-12.3231 31.3498,-3.5896 31.5068,15.0139" /><path
         id="path28"
         style="fill:#373535;fill-opacity:1;fill-rule:evenodd;stroke:none"
         d="m 569.5512,340.393 c -3.856,-0.7979 -1.9083,-1.349 -5.1112,0.722 -1.2041,3.6853 -0.8254,2.8429 1.2118,5.6999 l 4.2503,-0.697 z m 4.422,-1.3178 c 1.6076,-6.6073 -1.2084,-11.7227 -6.6775,-12.5881 -8.2673,-1.309 -8.0207,4.4603 -11.7162,7.6402 -5.1364,-7.5648 14.7518,-18.7577 20.9219,-3.7034 4.1562,10.1404 -4.6488,19.6398 -9.7931,19.3215 -3.1121,-0.1922 -4.0045,-2.1813 -5.1692,-3.1536 -1.5313,-1.2772 0.5422,-0.4076 -1.7927,-1.1902 -2.9318,14.4314 7.7349,17.1578 13.0533,13.2565 4.1666,-3.0569 0.9074,-3.8985 6.2237,-5.8669 -1.1931,14.3059 -19.0445,13.8884 -22.5694,1.5333 -1.8306,-6.4165 1.0196,-11.596 4.1567,-14.29 1.6702,-1.4338 4.1023,-3.4359 6.9574,-3.1816 4.4798,0.3985 3.8749,3.3647 6.4051,2.2223" /><path
         id="path30"
         style="fill:#373535;fill-opacity:1;fill-rule:evenodd;stroke:none"
         d="m 457.6853,339.442 c -2.5007,8.8175 7.3397,8.9175 5.0607,0.0457 -3.8543,-1.3318 -1.2447,-1.2963 -5.0607,-0.0457 z m 18.8801,-2.7385 1.2484,5.4961 c -3.2332,1.781 -3.0393,0.9498 -6.5772,1.0335 -1.0196,0.0241 -1.931,-0.0193 -2.9395,0.1893 -1.8567,0.3838 -1.3544,0.5624 -2.2385,1.1886 -6.937,9.8141 -15.0753,-0.0669 -10.7394,-6.677 2.1062,-3.2105 6.639,-3.2103 9.2333,-0.4436 4.4289,4.7219 2.103,3.3865 10.6481,3.3905 -2.8372,-26.7163 -41.3592,-13.0777 -30.2723,10.3172 1.0652,2.2479 2.9857,5.3289 5.5224,7.0155 5.2838,3.5127 5.3946,0.0247 7.971,4.5964 -1.2013,0.6809 0.0579,0.7163 -2.2283,0.7517 -10.1591,0.1568 -22.0623,-18.6239 -12.0764,-32.2477 12.6482,-17.2554 32.4059,-3.9515 32.4484,5.3895" /><path
         id="path32"
         style="fill:#373535;fill-opacity:1;fill-rule:evenodd;stroke:none"
         d="m 743.3158,342.1996 c -3.0316,-1.8117 -1.0539,-1.4106 -4.6661,-0.6027 -1.8099,3.4914 -1.5883,2.3876 -0.2384,6.279 l 5.2532,-0.6193 z m -13.803,-18.4581 0.9887,19.0049 c 8.3792,0.0569 3.056,-4.2889 9.8323,-4.6545 6.5426,-0.3524 3.4509,5.1769 10.2999,4.4903 0.8927,-8.0642 -1.0672,-14.7146 1.6532,-18.9898 1.5795,2.3505 1.4522,1.1973 1.4547,8.8361 l -0.2395,28.1055 c -0.6131,2.2561 -0.2951,1.0693 -1.2152,2.295 l -1.3666,-7.5921 c -0.011,-3.2326 0.108,-5.8691 -0.2786,-9.0895 -6.0727,-0.5227 -6.9137,9.1763 -13.8776,3.0163 -4.2344,-3.7451 1.4482,-2.8426 -5.5528,-3.0761 -1.8595,4.2329 -0.7733,12.1725 -1.4819,17.0861 -3.4308,-2.2575 -2.2661,-3.549 -2.2218,-9.025 l -0.008,-21.7332 c -0.0428,-4.7333 -1.0942,-6.6895 2.0129,-8.674" /><path
         id="path34"
         style="fill:#373535;fill-opacity:1;fill-rule:evenodd;stroke:none"
         d="m 534.9433,347.0136 c 1.525,-4.2103 1.4352,-1.36 0.0164,-5.4019 -5.419,-1.7836 -6.465,0.9688 -4.6207,5.017 3.037,1.8609 0.8682,1.6617 4.6043,0.3849 z m 13.5657,-22.1697 c -3.2609,2.4823 -13.9705,1.449 -18.5649,1.4916 l -0.3328,11.6659 c 5.0913,-0.4867 4.7446,-0.3911 7.7199,2.3327 4.8384,4.4274 4.7951,0.4535 6.961,4.0351 -3.9296,3.1972 -2.7348,-0.7583 -6.6889,3.401 -3.172,3.3369 -1.8706,3.2057 -7.958,2.8817 l 0.112,9.5272 c 3.0285,0.0786 5.8836,0.0389 8.7616,-0.009 1.2223,-0.0207 4.0311,-0.1698 5.091,-0.0428 l 3.816,1.5979 c -3.2961,2.711 -16.6195,2.065 -20.3987,0.5984 -0.5859,-10.5253 -0.3217,-21.5334 -0.3863,-32.1183 -0.0544,-8.8871 -0.7889,-7.3133 15.9593,-7.0642 4.3937,0.0652 4.1718,-0.0303 5.9088,1.7031" /><path
         id="path36"
         style="fill:#373535;fill-opacity:1;fill-rule:evenodd;stroke:none"
         d="m 653.9332,359.6125 c 1.1211,-2.8698 0.705,-2.9242 -0.07,-5.5879 l -5.1537,0.261 -0.1831,5.7651 c 2.4134,1.1753 3.5118,0.6327 5.4068,-0.4382 z m -7.8562,1.0236 c -2.2762,-12.2298 3.7023,2.3896 -3.9957,-19.753 -1.0727,-3.0843 -5.194,-12.0435 -5.0219,-15.0102 0.1397,-2.4061 0.0323,-0.9318 0.8161,-2.2805 3.0231,2.715 4.4977,9.1366 5.9961,13.2942 1.7133,4.7554 3.5246,9.5145 4.6664,14.0604 l 5.3989,-0.3444 8.2026,-21.295 c 1.4374,-4.0147 0.9451,-5.3167 4.4195,-5.0627 -0.6307,5.7181 -7.3596,19.8318 -8.9572,25.1649 -1.5846,5.2871 0.1837,5.5995 -0.6659,11.5336 -4.2732,3.1507 -6.9383,3.3199 -10.8589,-0.3073" /><path
         id="path38"
         style="fill:#373535;fill-opacity:1;fill-rule:evenodd;stroke:none"
         d="m 771.3556,359.3537 c 6.3031,4.6874 9.841,-7.2746 -0.1285,-4.9243 z M 760.316,323.5184 c 3.1153,2.7329 3.8418,7.4806 5.9786,13.3067 1.5154,4.132 3.1634,9.7441 5.061,13.7012 l 5.0176,0.169 c 1.4281,-2.3346 4.2502,-10.3822 5.4275,-13.5391 3.0418,-8.1596 2.7232,-11.628 7.0333,-13.5967 -0.2682,5.5236 -3.5204,12.3304 -5.4159,17.4946 -6.8428,18.6398 -2.3023,7.5846 -3.9092,19.9542 -13.559,9.3257 -10.7609,-9.0099 -12.2931,-13.2449 -1.6146,-4.4623 -2.6898,-7.6045 -4.1734,-11.6586 l -3.3812,-9.4751 c -0.3654,-4.3515 -0.0278,-1.7396 0.6548,-3.1113" /><path
         id="path40"
         style="fill:#373535;fill-opacity:1;fill-rule:evenodd;stroke:none"
         d="m 708.7397,359.1173 c 4.4246,1.4907 9.189,-1.5044 10.2753,-5.29 1.7214,-5.9993 -1.499,-10.3116 -5.1608,-11.3369 -11.0602,-3.096 -14.1367,13.5879 -5.1145,16.6269 z m -6.6334,-35.4623 c 2.272,4.5672 0.8186,12.7477 1.2966,18.4711 11.3646,-6.2418 18.2395,-0.7687 18.758,7.7026 0.7168,11.7187 -10.4437,14.9417 -18.0471,9.8198 l -1.2849,1.8264 c -1.3338,1.1043 0.1448,0.9348 -2.164,0.8234 l -0.2872,-35.2837 c 0.7892,-5.6347 0.1695,-2.0383 1.7286,-3.3596" /><path
         id="path42"
         style="fill:#373535;fill-opacity:1;fill-rule:evenodd;stroke:none"
         d="m 595.8193,357.3862 c -0.2174,5.2024 2.3054,5.6812 6.0293,4.1465 l -0.2605,-5.0525 c -3.2196,-1.2997 -3.1831,-1.298 -5.7688,0.906 z m -10.7601,4.3387 c 1.3267,-3.1816 3.8109,-1.9809 7.6298,-1.9789 0.9782,-6.0568 0.9864,-4.5411 4.5728,-7.7839 0.0383,-4.8612 -0.8983,-24.2844 1.4729,-28.5628 l 1.6163,28.5636 c 4.4929,4.8039 2.31,2.1478 5.4091,7.5989 4.7545,0.39 4.4373,-1.0352 6.3145,2.1631 -3.6607,1.9777 -3.3753,0.483 -7.185,1.307 -4.3025,0.9307 -1.2243,2.2802 -6.1883,2.3783 -4.7166,0.0935 -2.5101,-1.4116 -6.166,-2.3306 -3.4234,-0.8606 -4.352,0.6862 -7.4761,-1.3547" /><path
         id="path44"
         style="fill:#373535;fill-opacity:1;fill-rule:evenodd;stroke:none"
         d="m 677.9112,326.6274 c 1.0145,-1.9768 0.9105,0.4462 0.4966,-3.2879 l -2.7589,-0.1913 c -0.3328,3.5492 -0.4808,2.8667 2.2623,3.4792 z m 16.6802,-1.7835 c -1.0134,0.536 0.286,0.4558 -2.5399,0.991 l -10.017,0.3106 -4.1349,4.8887 c 0.3537,5.7424 0.3753,11.1651 0.3583,16.5895 -0.0278,8.6417 0.6386,10.5148 -0.8275,14.7092 -0.074,0.2115 -0.2653,0.5386 -0.4141,0.7974 -2.8763,-2.8494 -1.6668,-19.137 -1.6297,-26.3701 0.0542,-10.5755 -0.2386,-6.1441 -1.4195,-8.6502 -3.1856,-6.7612 1.0034,-10.0472 5.6182,-7.2491 2.3335,1.4151 0.563,2.0565 7.4503,2.0248 9.4649,-0.0428 6.1461,-0.0672 7.5558,1.9582" /><path
         id="path46"
         style="fill:#373535;fill-opacity:1;fill-rule:evenodd;stroke:none"
         d="m 433.139,323.5595 c 1.652,1.1268 1.9596,-3.3718 1.8765,8.8634 -0.0244,3.6198 0.009,7.2411 0.0108,10.8618 l 0.0745,16.3774 c -0.8025,5.8391 0.7098,1.8468 -1.9618,3.5053 -2.0727,-4.909 -2.1405,-34.5396 0,-39.6079" /><path
         id="path48"
         style="fill:#373535;fill-opacity:1;fill-rule:evenodd;stroke:none"
         d="m 476.5654,336.7035 c 2.6777,3.1155 2.1728,1.9576 1.8891,6.5812 -3.0524,1.8068 -8.3515,0.8929 -12.3959,1.3263 0.8841,-0.6262 0.3818,-0.8048 2.2385,-1.1886 1.0085,-0.2086 1.9199,-0.1652 2.9395,-0.1893 3.5379,-0.0837 3.344,0.7475 6.5772,-1.0335 z" /><path
         id="path50"
         style="fill:#373535;fill-opacity:1;fill-rule:evenodd;stroke:none"
         d="m 403.7961,323.4892 c 0.2157,0.2469 0.5006,0.9927 0.6421,0.7452 0.136,-0.2381 0.5045,0.5318 0.6879,0.6378 3.5697,2.0639 -2.2855,-0.1216 2.4412,0.9873 -1.9244,1.7618 2.5793,1.2379 -2.6464,1.6144 z" /><path
         id="path52"
         style="fill:#373535;fill-opacity:1;fill-rule:evenodd;stroke:none"
         d="m 448.0282,307.6486 c 0.0981,0 0.1962,-0.0323 0.2549,-0.0805 0.0589,-0.064 0.0785,-0.1445 0.0589,-0.225 l -2.0577,-10.6478 c -0.0198,-0.0805 -0.0589,-0.1607 -0.1374,-0.2092 -0.0783,-0.0641 -0.1761,-0.0964 -0.2741,-0.0964 h -0.3331 -1.372 -0.0195 c -0.0981,0 -0.1956,0.0323 -0.2744,0.0964 -0.0981,0.0485 -0.1372,0.1287 -0.1568,0.2092 l -1.2348,7.1895 -1.2345,-7.1895 c -0.0195,-0.0805 -0.0782,-0.1607 -0.157,-0.2092 -0.0782,-0.0641 -0.176,-0.0964 -0.2741,-0.0964 h -0.0193 -1.3722 -0.3135 c -0.0978,0 -0.1959,0.0323 -0.2744,0.0964 -0.078,0.0485 -0.1369,0.1287 -0.1568,0.2092 l -2.0574,10.6478 v 0.0323 c 0,0.0802 0.0389,0.1448 0.0975,0.1927 0.0587,0.0482 0.1177,0.0805 0.2158,0.0805 h 1.3325 c 0.0981,0 0.1962,-0.0323 0.2744,-0.0805 0.0782,-0.064 0.1177,-0.1445 0.1372,-0.225 l 1.4111,-7.3024 1.3326,7.3024 c 0.0198,0.0805 0.0589,0.161 0.1372,0.2092 0.0782,0.0481 0.1763,0.0805 0.2744,0.0963 h 0.0198 1.2538 0.0198 v 0 c 0.0978,0 0.1959,-0.0323 0.2744,-0.0805 0.0587,-0.064 0.1176,-0.1445 0.1369,-0.225 l 1.3326,-7.3024 1.4113,7.3024 c 0.0196,0.0805 0.0783,0.161 0.1568,0.225 0.0782,0.0482 0.1763,0.0805 0.2744,0.0805 z m 3.3514,-1.6889 v -3.088 h 2.8026 c 0.0978,0 0.1962,-0.0323 0.2744,-0.0805 0.0584,-0.0644 0.0981,-0.1446 0.0981,-0.2251 v -1.0939 c 0,-0.0805 -0.0397,-0.1607 -0.0981,-0.2089 -0.0782,-0.0643 -0.1766,-0.0967 -0.2744,-0.0967 h -2.8026 v -3.088 h 3.547 c 0.0981,0 0.1965,-0.0323 0.2747,-0.0805 0.0587,-0.0644 0.0975,-0.1284 0.0975,-0.2092 v -1.0936 c 0,-0.0805 -0.0388,-0.1607 -0.0975,-0.2092 -0.0782,-0.0641 -0.1766,-0.0964 -0.2747,-0.0964 h -3.547 -0.9601 -0.7251 c -0.0981,0 -0.1958,0.0323 -0.2548,0.0964 -0.0785,0.0485 -0.1174,0.1287 -0.1174,0.2092 v 10.6478 c 0,0.0805 0.0389,0.161 0.1174,0.225 0.059,0.0482 0.1567,0.0805 0.2548,0.0805 h 0.7251 0.9601 3.547 c 0.0981,0 0.1965,-0.0323 0.2747,-0.0805 0.0587,-0.064 0.0975,-0.1445 0.0975,-0.225 v -1.0937 c 0,-0.0805 -0.0388,-0.1448 -0.0975,-0.193 -0.0782,-0.0643 -0.1766,-0.0967 -0.2747,-0.0967 z" /><path
         id="path54"
         style="fill:#373535;fill-opacity:1;fill-rule:evenodd;stroke:none"
         d="m 459.1009,303.9171 -0.7248,0.3538 c 0.235,0.386 0.3917,0.7081 0.4901,0.9331 0.0782,0.2251 0.1372,0.5145 0.176,0.8686 h -0.8427 v 2.1551 h 1.7246 v -1.3509 c 0,-0.6758 -0.059,-1.2065 -0.1568,-1.5925 -0.1173,-0.3861 -0.333,-0.8366 -0.6664,-1.3672" /><path
         id="path56"
         style="fill:#373535;fill-opacity:1;fill-rule:evenodd;stroke:none"
         d="m 468.3121,298.0786 c 0.0981,0 0.1956,-0.0323 0.2744,-0.0805 0.0589,-0.0644 0.0978,-0.1284 0.0978,-0.2092 v -1.0936 c 0,-0.0805 -0.0389,-0.1607 -0.0978,-0.2092 -0.0788,-0.0641 -0.1763,-0.0964 -0.2744,-0.0964 h -3.0969 -1.4105 -0.2942 c -0.0978,0 -0.1959,0.0323 -0.2548,0.0964 -0.0587,0.0485 -0.0978,0.1287 -0.0978,0.2092 v 10.6478 c 0,0.0805 0.0391,0.161 0.0978,0.225 0.0589,0.0482 0.157,0.0805 0.2548,0.0805 h 1.3326 c 0.0983,0 0.1964,-0.0323 0.2746,-0.0805 0.059,-0.064 0.0975,-0.1445 0.0975,-0.225 v -9.2645 z m 6.5061,0 c 0.0981,0 0.1961,-0.0323 0.2749,-0.0805 0.0584,-0.0644 0.0975,-0.1284 0.0975,-0.2092 v -1.0936 c 0,-0.0805 -0.0391,-0.1607 -0.0975,-0.2092 -0.0788,-0.0641 -0.1768,-0.0964 -0.2749,-0.0964 h -3.0963 -1.4108 -0.2942 c -0.0978,0 -0.1959,0.0323 -0.2549,0.0964 -0.0587,0.0485 -0.0975,0.1287 -0.0975,0.2092 v 10.6478 c 0,0.0805 0.0388,0.161 0.0975,0.225 0.059,0.0482 0.1571,0.0805 0.2549,0.0805 h 1.3325 c 0.0981,0 0.1965,-0.0323 0.2747,-0.0805 0.0587,-0.064 0.0978,-0.1445 0.0978,-0.225 v -9.2645 z m 12.5818,9.57 c 0.0981,0 0.1956,-0.0323 0.2741,-0.0805 0.0587,-0.064 0.0984,-0.1445 0.0984,-0.225 v -1.0937 c 0,-0.0805 -0.0397,-0.1448 -0.0984,-0.193 -0.0785,-0.0643 -0.176,-0.0967 -0.2741,-0.0967 h -2.1362 v -9.2644 c 0,-0.0805 -0.0391,-0.1607 -0.098,-0.2092 -0.0786,-0.0641 -0.1764,-0.0964 -0.2744,-0.0964 h -1.3326 c -0.0978,0 -0.1959,0.0323 -0.2548,0.0964 -0.0783,0.0485 -0.1177,0.1287 -0.1177,0.2092 v 9.2644 h -2.1359 c -0.0981,0 -0.1958,0.0324 -0.2548,0.0967 -0.0785,0.0482 -0.1176,0.1125 -0.1176,0.193 v 1.0937 c 0,0.0805 0.0391,0.161 0.1176,0.225 0.059,0.0482 0.1567,0.0805 0.2548,0.0805 h 4.2134 z m 8.8192,-10.9856 c 0,-0.0803 -0.0196,-0.1449 -0.0785,-0.1928 -0.0587,-0.0482 -0.1375,-0.0805 -0.2353,-0.0805 h -1.3326 c -0.0981,0 -0.1961,0.0323 -0.2747,0.0964 -0.0782,0.0485 -0.1369,0.1287 -0.1567,0.2092 l -0.2741,1.4476 h -2.7828 l -0.2747,-1.4476 c -0.0192,-0.0805 -0.0589,-0.1607 -0.1372,-0.2092 -0.0782,-0.0641 -0.1763,-0.0964 -0.2741,-0.0964 h -1.3325 c -0.0981,0 -0.1764,0.0323 -0.2353,0.0964 -0.059,0.0485 -0.0981,0.1287 -0.0783,0.2092 l 2.0574,10.6478 c 0.0199,0.0805 0.059,0.161 0.1571,0.225 0.0782,0.0482 0.1763,0.0805 0.2744,0.0805 h 0.7639 0.9408 0.7645 c 0.0981,0 0.1956,-0.0323 0.294,-0.0805 0.0785,-0.064 0.1176,-0.1445 0.1369,-0.225 l 2.0778,-10.6478 z m -2.6853,3.185 -1.0582,5.3878 -1.0581,-5.3878 z m 10.0145,7.8006 c 0.1766,0 0.2549,-0.064 0.2549,-0.1766 l -0.0391,-0.1289 -2.92,-5.34 2.8808,-5.3078 0.0392,-0.129 c 0,-0.1125 -0.0788,-0.1766 -0.235,-0.1766 h -1.3329 c -0.0981,0 -0.2157,0.0323 -0.3135,0.0964 -0.0984,0.0485 -0.1766,0.1287 -0.2157,0.2092 l -1.8422,3.4101 -0.5684,-1.0296 v -2.3805 c 0,-0.0805 -0.0388,-0.1607 -0.0978,-0.2092 -0.059,-0.0641 -0.157,-0.0964 -0.2545,-0.0964 h -1.3326 c -0.0981,0 -0.1962,0.0323 -0.2548,0.0964 -0.0786,0.0485 -0.1177,0.1287 -0.1177,0.2092 v 10.6478 c 0,0.0805 0.0391,0.161 0.1177,0.225 0.0586,0.0482 0.1567,0.0805 0.2548,0.0805 h 1.3326 c 0.0975,0 0.1955,-0.0323 0.2545,-0.0805 0.059,-0.064 0.0978,-0.1445 0.0978,-0.225 v -4.4714 l 2.4304,4.4714 c 0.0587,0.0805 0.1372,0.161 0.2347,0.225 0.0981,0.0482 0.1965,0.0805 0.2943,0.0805 z m 3.2922,-1.6889 v -3.088 h 2.8029 c 0.0978,0 0.1959,-0.0323 0.2744,-0.0805 0.0587,-0.0644 0.0981,-0.1446 0.0981,-0.2251 v -1.0939 c 0,-0.0805 -0.0394,-0.1607 -0.0981,-0.2089 -0.0785,-0.0643 -0.1766,-0.0967 -0.2744,-0.0967 h -2.8029 v -3.088 h 3.5473 c 0.0983,0 0.1964,-0.0323 0.2747,-0.0805 0.0589,-0.0644 0.0977,-0.1284 0.0977,-0.2092 v -1.0936 c 0,-0.0805 -0.0388,-0.1607 -0.0977,-0.2092 -0.0783,-0.0641 -0.1764,-0.0964 -0.2747,-0.0964 h -3.5473 -0.9601 -0.7248 c -0.0981,0 -0.1959,0.0323 -0.2548,0.0964 -0.0786,0.0485 -0.1177,0.1287 -0.1177,0.2092 v 10.6478 c 0,0.0805 0.0391,0.161 0.1177,0.225 0.0589,0.0482 0.1567,0.0805 0.2548,0.0805 h 0.7248 0.9601 3.5473 c 0.0983,0 0.1964,-0.0323 0.2747,-0.0805 0.0589,-0.064 0.0977,-0.1445 0.0977,-0.225 v -1.0937 c 0,-0.0805 -0.0388,-0.1448 -0.0977,-0.193 -0.0783,-0.0643 -0.1764,-0.0967 -0.2747,-0.0967 z m 12.9736,1.6889 c 0.5879,0 1.1171,-0.1125 1.5678,-0.3537 0.451,-0.2413 0.8232,-0.5792 1.0781,-0.9814 0.2548,-0.4181 0.3722,-0.8844 0.3722,-1.383 v -0.2254 -0.0802 -0.6755 c 0,-0.0805 -0.0392,-0.1607 -0.0981,-0.2092 -0.0783,-0.0482 -0.1761,-0.0805 -0.2741,-0.0805 h -1.3133 c -0.0975,0 -0.1956,0.0323 -0.2546,0.0805 -0.0782,0.0485 -0.1179,0.1287 -0.1179,0.2092 v 0.6755 0.0802 c 0,0.37 -0.0975,0.6597 -0.3135,0.9009 -0.2152,0.2412 -0.5094,0.3537 -0.9011,0.3537 -0.4114,0 -0.7056,-0.1125 -0.921,-0.3537 -0.2157,-0.2412 -0.3135,-0.5309 -0.3135,-0.9009 v -5.3719 c 0,-0.3699 0.0978,-0.6596 0.3135,-0.9009 0.2154,-0.2412 0.5096,-0.3537 0.921,-0.3537 0.3917,0 0.6859,0.1125 0.9011,0.3537 0.216,0.2413 0.3135,0.531 0.3135,0.9009 v 0.0159 0.6755 c 0,0.0808 0.0397,0.161 0.1179,0.2253 0.059,0.0482 0.1571,0.0805 0.2546,0.0805 h 1.3133 c 0.098,0 0.1958,-0.0323 0.2741,-0.0805 0.0589,-0.0643 0.0981,-0.1445 0.0981,-0.2253 v -0.6755 -0.0805 -0.1608 c 0,-0.4986 -0.1174,-0.9649 -0.3722,-1.3671 -0.2549,-0.4181 -0.6271,-0.7398 -1.0781,-0.9811 -0.4507,-0.2415 -0.9799,-0.3699 -1.5678,-0.3699 h -0.5289 c -0.6075,0 -1.1367,0.1284 -1.5874,0.3699 -0.4505,0.2413 -0.8037,0.563 -1.0582,0.9811 -0.2548,0.4022 -0.392,0.8685 -0.392,1.3671 v 5.8227 c 0,0.4986 0.1372,0.9649 0.392,1.383 0.2545,0.4022 0.6077,0.7401 1.0582,0.9814 0.4507,0.2412 0.9799,0.3537 1.5874,0.3537 z m 11.465,-10.9856 c 0,-0.0803 -0.0195,-0.1449 -0.0782,-0.1928 -0.059,-0.0482 -0.1378,-0.0805 -0.2353,-0.0805 h -1.3326 c -0.0983,0 -0.1961,0.0323 -0.2749,0.0964 -0.0783,0.0485 -0.1372,0.1287 -0.1565,0.2092 l -0.2741,1.4476 h -2.7831 l -0.2744,-1.4476 c -0.0195,-0.0805 -0.0589,-0.1607 -0.1372,-0.2092 -0.0785,-0.0641 -0.1766,-0.0964 -0.2741,-0.0964 h -1.3328 c -0.0981,0 -0.1763,0.0323 -0.2353,0.0964 -0.0587,0.0485 -0.0981,0.1287 -0.0782,0.2092 l 2.0576,10.6478 c 0.0196,0.0805 0.0587,0.161 0.1568,0.225 0.0785,0.0482 0.1766,0.0805 0.2741,0.0805 h 0.7645 0.9408 0.7643 c 0.098,0 0.1958,-0.0323 0.2942,-0.0805 0.0782,-0.064 0.1173,-0.1445 0.1369,-0.225 l 2.0775,-10.6478 z m -2.6852,3.185 -1.0579,5.3878 -1.0582,-5.3878 z m 10.2302,4.1014 c 0,-0.4666 -0.1372,-0.8685 -0.4309,-1.1903 -0.2942,-0.3217 -0.6862,-0.5629 -1.1761,-0.7401 0.4899,-0.1769 0.8819,-0.4181 1.1761,-0.7398 0.2937,-0.3218 0.4309,-0.7237 0.4309,-1.1903 v -2.6056 -0.788 c 0,-0.0805 -0.0391,-0.1607 -0.0981,-0.2092 -0.0782,-0.0641 -0.1763,-0.0964 -0.2741,-0.0964 h -1.3326 c -0.0983,0 -0.1961,0.0323 -0.2545,0.0964 -0.0788,0.0485 -0.1179,0.1287 -0.1179,0.2092 v 0.788 0.3056 2.4772 c -0.0199,0.3056 -0.1764,0.5306 -0.4507,0.6755 -0.2744,0.1448 -0.6274,0.225 -1.0582,0.225 h -0.9216 v -4.4713 c 0,-0.0805 -0.0388,-0.1607 -0.0975,-0.2092 -0.0785,-0.0641 -0.1766,-0.0964 -0.2749,-0.0964 h -1.3125 c -0.0983,0 -0.1961,0.0323 -0.2545,0.0964 -0.0788,0.0485 -0.118,0.1287 -0.118,0.2092 v 10.6478 c 0,0.0805 0.0392,0.161 0.118,0.225 0.0584,0.0482 0.1562,0.0805 0.2545,0.0805 h 0.5094 1.1755 1.6268 c 0.9216,0 1.6464,-0.1766 2.1362,-0.5306 0.4901,-0.3699 0.7447,-0.917 0.7447,-1.6407 z m -4.5077,2.0103 v -3.088 h 0.9216 c 0.4308,0 0.7838,0.0802 1.0582,0.2251 0.2743,0.1448 0.4308,0.3699 0.4507,0.6755 v 1.5766 c -0.0199,0.2732 -0.1571,0.4501 -0.3725,0.5148 -0.2353,0.064 -0.6078,0.096 -1.1364,0.096 z m 7.545,0 v -3.088 h 2.8026 c 0.0981,0 0.1962,-0.0323 0.2744,-0.0805 0.059,-0.0644 0.0981,-0.1446 0.0981,-0.2251 v -1.0939 c 0,-0.0805 -0.0391,-0.1607 -0.0981,-0.2089 -0.0782,-0.0643 -0.1763,-0.0967 -0.2744,-0.0967 h -2.8026 v -3.088 h 3.5473 c 0.0981,0 0.1961,-0.0323 0.2747,-0.0805 0.0586,-0.0644 0.0978,-0.1284 0.0978,-0.2092 v -1.0936 c 0,-0.0805 -0.0392,-0.1607 -0.0978,-0.2092 -0.0786,-0.0641 -0.1766,-0.0964 -0.2747,-0.0964 h -3.5473 -0.9601 -0.7251 c -0.0981,0 -0.1959,0.0323 -0.2545,0.0964 -0.0788,0.0485 -0.1177,0.1287 -0.1177,0.2092 v 10.6478 c 0,0.0805 0.0389,0.161 0.1177,0.225 0.0586,0.0482 0.1564,0.0805 0.2545,0.0805 h 0.7251 0.9601 3.5473 c 0.0981,0 0.1961,-0.0323 0.2747,-0.0805 0.0586,-0.064 0.0978,-0.1445 0.0978,-0.225 v -1.0937 c 0,-0.0805 -0.0392,-0.1448 -0.0978,-0.193 -0.0786,-0.0643 -0.1766,-0.0967 -0.2747,-0.0967 z m 12.4248,1.6889 c -0.5879,0 -1.1171,-0.1125 -1.5675,-0.3537 -0.4507,-0.2413 -0.8039,-0.5792 -1.0585,-0.9814 -0.2548,-0.4181 -0.3917,-0.8844 -0.3917,-1.383 v -5.8227 c 0,-0.4986 0.1369,-0.9649 0.3917,-1.3671 0.2546,-0.4181 0.6078,-0.7398 1.0585,-0.9811 0.4504,-0.2415 0.9796,-0.3699 1.5675,-0.3699 h 0.5097 c 0.6075,0 1.137,0.1284 1.5874,0.3699 0.4507,0.2413 0.8232,0.563 1.078,0.9811 0.2546,0.4022 0.3725,0.8685 0.3725,1.3671 v 5.8227 c 0,0.4986 -0.1179,0.9649 -0.3725,1.383 -0.2548,0.4022 -0.6273,0.7401 -1.078,0.9814 -0.4504,0.2412 -0.9799,0.3537 -1.5874,0.3537 z m 0.2551,-1.6889 c 0.4114,0 0.7056,-0.1125 0.921,-0.3537 0.1959,-0.2412 0.294,-0.5309 0.294,-0.9009 v -5.3719 c 0,-0.3699 -0.0981,-0.6596 -0.294,-0.9009 -0.2154,-0.2412 -0.5096,-0.3537 -0.921,-0.3537 -0.3923,0 -0.6859,0.1125 -0.9019,0.3537 -0.2152,0.2413 -0.3135,0.531 -0.3135,0.9009 v 5.3719 c 0,0.37 0.0983,0.6597 0.3135,0.9009 0.216,0.2412 0.5096,0.3537 0.9019,0.3537 z m 9.8765,1.6889 c 0.0981,0 0.1965,-0.0323 0.275,-0.0805 0.0587,-0.064 0.0975,-0.1445 0.0975,-0.225 v -1.0937 c 0,-0.0805 -0.0388,-0.1448 -0.0975,-0.193 -0.0785,-0.0643 -0.1769,-0.0967 -0.275,-0.0967 h -3.547 v -3.088 h 2.8029 c 0.0975,0 0.1956,-0.0323 0.2741,-0.0805 0.0587,-0.0644 0.0981,-0.1446 0.0981,-0.2251 v -1.0939 c 0,-0.0805 -0.0394,-0.1607 -0.0981,-0.2089 -0.0785,-0.0643 -0.1766,-0.0967 -0.2741,-0.0967 h -2.8029 v -4.4713 c 0,-0.0805 -0.0388,-0.1607 -0.0978,-0.2092 -0.0782,-0.0641 -0.1763,-0.0964 -0.2746,-0.0964 h -1.3125 c -0.0983,0 -0.1961,0.0323 -0.2551,0.0964 -0.0782,0.0485 -0.1174,0.1287 -0.1174,0.2092 v 10.6478 c 0,0.0805 0.0392,0.161 0.1174,0.225 0.059,0.0482 0.1568,0.0805 0.2551,0.0805 h 0.7248 0.9601 z m 13.7772,0 c 0.0981,0 0.1764,-0.0323 0.2353,-0.0805 0.059,-0.064 0.0783,-0.1445 0.059,-0.225 l -3.0575,-7.3185 h -0.0195 v -3.3293 c 0,-0.0805 -0.0394,-0.1607 -0.0984,-0.2092 -0.0782,-0.0641 -0.176,-0.0964 -0.2741,-0.0964 h -1.3133 c -0.0975,0 -0.1956,0.0323 -0.2545,0.0964 -0.0783,0.0485 -0.1177,0.1287 -0.1177,0.2092 v 3.3293 h -0.0195 l -3.0572,7.3185 v 0.0643 c 0,0.1607 0.0981,0.2412 0.2937,0.2412 h 1.3328 c 0.0981,0 0.1965,-0.0323 0.294,-0.0805 0.0981,-0.064 0.1372,-0.1445 0.157,-0.225 l 2.0381,-4.8578 2.0186,4.8578 c 0.0195,0.0805 0.0587,0.161 0.1564,0.225 0.0984,0.0482 0.1962,0.0805 0.2943,0.0805 z m 4.2914,0 c -0.5876,0 -1.1168,-0.1125 -1.5673,-0.3537 -0.4507,-0.2413 -0.8039,-0.5792 -1.0584,-0.9814 -0.2546,-0.4181 -0.3918,-0.8844 -0.3918,-1.383 v -5.8227 c 0,-0.4986 0.1372,-0.9649 0.3918,-1.3671 0.2545,-0.4181 0.6077,-0.7398 1.0584,-0.9811 0.4505,-0.2415 0.9797,-0.3699 1.5673,-0.3699 h 0.51 c 0.6074,0 1.1367,0.1284 1.5874,0.3699 0.4507,0.2413 0.8232,0.563 1.078,0.9811 0.2545,0.4022 0.3725,0.8685 0.3725,1.3671 v 5.8227 c 0,0.4986 -0.118,0.9649 -0.3725,1.383 -0.2548,0.4022 -0.6273,0.7401 -1.078,0.9814 -0.4507,0.2412 -0.98,0.3537 -1.5874,0.3537 z m 0.2554,-1.6889 c 0.4113,0 0.7056,-0.1125 0.9207,-0.3537 0.1962,-0.2412 0.2943,-0.5309 0.2943,-0.9009 v -5.3719 c 0,-0.3699 -0.0981,-0.6596 -0.2943,-0.9009 -0.2151,-0.2412 -0.5094,-0.3537 -0.9207,-0.3537 -0.3923,0 -0.686,0.1125 -0.902,0.3537 -0.2154,0.2413 -0.3135,0.531 -0.3135,0.9009 v 5.3719 c 0,0.37 0.0981,0.6597 0.3135,0.9009 0.216,0.2412 0.5097,0.3537 0.902,0.3537 z m 10.465,1.6889 c 0.0978,0 0.1958,-0.0323 0.2741,-0.0805 0.0589,-0.064 0.0981,-0.1445 0.0981,-0.225 v -3.5062 -4.7291 c 0,-0.4986 -0.1177,-0.9649 -0.3722,-1.3671 -0.2552,-0.4181 -0.6276,-0.7398 -1.078,-0.9811 -0.4508,-0.2415 -0.9803,-0.3699 -1.5875,-0.3699 h -0.5099 c -0.5876,0 -1.1166,0.1284 -1.5676,0.3699 -0.4504,0.2413 -0.8033,0.563 -1.0581,0.9811 -0.2546,0.4022 -0.3918,0.8685 -0.3918,1.3671 v 5.5815 2.6538 c 0,0.0805 0.0389,0.161 0.1174,0.225 0.0589,0.0482 0.1567,0.0805 0.2551,0.0805 h 1.3124 c 0.0984,0 0.1965,-0.0323 0.2747,-0.0805 0.0587,-0.064 0.0978,-0.1445 0.0978,-0.225 v -3.5062 -4.5037 c 0,-0.3699 0.0981,-0.6596 0.3135,-0.9009 0.216,-0.2412 0.5094,-0.3537 0.9017,-0.3537 0.4116,0 0.7056,0.1125 0.921,0.3537 0.1961,0.2413 0.2942,0.531 0.2942,0.9009 v 5.3561 2.6538 c 0,0.0805 0.0389,0.161 0.1174,0.225 0.0589,0.0482 0.1567,0.0805 0.2548,0.0805 z m 13.3259,-10.9856 c 0,-0.0803 -0.0195,-0.1449 -0.0785,-0.1928 -0.0587,-0.0482 -0.1372,-0.0805 -0.235,-0.0805 h -1.3326 c -0.098,0 -0.1961,0.0323 -0.2749,0.0964 -0.0783,0.0485 -0.1372,0.1287 -0.1565,0.2092 l -0.2741,1.4476 h -2.7828 l -0.2747,-1.4476 c -0.0195,-0.0805 -0.0589,-0.1607 -0.1371,-0.2092 -0.0786,-0.0641 -0.1766,-0.0964 -0.2742,-0.0964 h -1.3328 c -0.0981,0 -0.1763,0.0323 -0.2353,0.0964 -0.0587,0.0485 -0.0983,0.1287 -0.0782,0.2092 l 2.0576,10.6478 c 0.0196,0.0805 0.0587,0.161 0.1568,0.225 0.0785,0.0482 0.1766,0.0805 0.2741,0.0805 h 0.7645 0.9408 0.7643 c 0.098,0 0.1958,-0.0323 0.2942,-0.0805 0.0779,-0.064 0.1173,-0.1445 0.1369,-0.225 l 2.0775,-10.6478 z m -2.685,3.185 -1.0581,5.3878 -1.0582,-5.3878 z m 10.3868,7.8006 c 0.0983,0 0.1961,-0.0323 0.2743,-0.0805 0.059,-0.064 0.0981,-0.1445 0.0981,-0.225 v -10.6478 c 0,-0.0805 -0.0391,-0.1607 -0.0981,-0.2092 -0.0782,-0.0641 -0.176,-0.0964 -0.2743,-0.0964 h -0.294 -1.3326 -0.0782 v 0 c -0.1962,0.0323 -0.3334,0.1284 -0.392,0.3056 l -2.5478,7.1895 v -7.1895 c 0,-0.0805 -0.0391,-0.1607 -0.0981,-0.2092 -0.0782,-0.0641 -0.1763,-0.0964 -0.2741,-0.0964 h -1.3326 c -0.0981,0 -0.1961,0.0323 -0.2545,0.0964 -0.0788,0.0485 -0.1179,0.1287 -0.1179,0.2092 v 10.6478 c 0,0.0805 0.0391,0.161 0.1179,0.225 0.0584,0.0482 0.1564,0.0805 0.2545,0.0805 h 0.3725 1.3323 0.0589 c 0.0978,0 0.2155,-0.0323 0.3133,-0.0805 0.0981,-0.064 0.157,-0.1445 0.1763,-0.225 l 2.3913,-6.8843 v 6.8843 c 0,0.0805 0.0391,0.161 0.1173,0.225 0.059,0.0482 0.1568,0.0805 0.2552,0.0805 z m 4.5861,0 c 0.6075,0 1.1753,-0.0963 1.6855,-0.3055 0.5094,-0.2092 0.921,-0.5148 1.2149,-0.8847 0.2937,-0.37 0.4312,-0.8039 0.4312,-1.2867 v -6.3051 c 0,-0.4827 -0.1375,-0.9167 -0.4312,-1.2866 -0.2939,-0.37 -0.7055,-0.6597 -1.2149,-0.8689 -0.5102,-0.2089 -1.078,-0.3214 -1.6855,-0.3214 h -1.1761 -1.1755 -0.5097 c -0.098,0 -0.1958,0.0323 -0.2548,0.0964 -0.0785,0.0485 -0.1174,0.1287 -0.1174,0.2092 v 10.6478 c 0,0.0805 0.0389,0.161 0.1174,0.225 0.059,0.0482 0.1568,0.0805 0.2548,0.0805 h 0.5097 1.1755 z m 1.2544,-2.6056 c -0.0202,0.3059 -0.1766,0.531 -0.4508,0.6917 -0.2942,0.1448 -0.6468,0.225 -1.0584,0.225 h -0.9213 v -7.8811 h 0.9213 c 0.4116,0 0.7642,0.0802 1.0584,0.2412 0.2742,0.1446 0.4306,0.3696 0.4508,0.6755 z m 15.4817,2.6056 c 0.098,0 0.1763,-0.0323 0.2352,-0.0805 0.0587,-0.064 0.0783,-0.1445 0.0587,-0.225 l -3.0574,-7.3185 h -0.0193 v -3.3293 c 0,-0.0805 -0.0397,-0.1607 -0.0984,-0.2092 -0.0785,-0.0641 -0.176,-0.0964 -0.2741,-0.0964 h -1.3133 c -0.0978,0 -0.1959,0.0323 -0.2548,0.0964 -0.0783,0.0485 -0.1174,0.1287 -0.1174,0.2092 v 3.3293 h -0.0198 l -3.0569,7.3185 v 0.0643 c 0,0.1607 0.0978,0.2412 0.2937,0.2412 h 1.3325 c 0.0981,0 0.1962,-0.0323 0.2943,-0.0805 0.0981,-0.064 0.1372,-0.1445 0.157,-0.225 l 2.0381,-4.8578 2.0183,4.8578 c 0.0196,0.0805 0.059,0.161 0.1568,0.225 0.0983,0.0482 0.1958,0.0805 0.2939,0.0805 z m 4.2913,0 c -0.5879,0 -1.1168,-0.1125 -1.5675,-0.3537 -0.4505,-0.2413 -0.8037,-0.5792 -1.0582,-0.9814 -0.2548,-0.4181 -0.392,-0.8844 -0.392,-1.383 v -5.8227 c 0,-0.4986 0.1372,-0.9649 0.392,-1.3671 0.2545,-0.4181 0.6077,-0.7398 1.0582,-0.9811 0.4507,-0.2415 0.9796,-0.3699 1.5675,-0.3699 h 0.51 c 0.6074,0 1.1364,0.1284 1.5874,0.3699 0.4507,0.2413 0.8229,0.563 1.0777,0.9811 0.2548,0.4022 0.3722,0.8685 0.3722,1.3671 v 5.8227 c 0,0.4986 -0.1174,0.9649 -0.3722,1.383 -0.2548,0.4022 -0.627,0.7401 -1.0777,0.9814 -0.451,0.2412 -0.98,0.3537 -1.5874,0.3537 z m 0.2554,-1.6889 c 0.4111,0 0.705,-0.1125 0.9204,-0.3537 0.1962,-0.2412 0.2943,-0.5309 0.2943,-0.9009 v -5.3719 c 0,-0.3699 -0.0981,-0.6596 -0.2943,-0.9009 -0.2154,-0.2412 -0.5093,-0.3537 -0.9204,-0.3537 -0.3923,0 -0.6862,0.1125 -0.902,0.3537 -0.2154,0.2413 -0.3138,0.531 -0.3138,0.9009 v 5.3719 c 0,0.37 0.0984,0.6597 0.3138,0.9009 0.2158,0.2412 0.5097,0.3537 0.902,0.3537 z m 10.4644,1.6889 c 0.0981,0 0.1962,-0.0323 0.2744,-0.0805 0.059,-0.064 0.0981,-0.1445 0.0981,-0.225 v -3.5062 -4.7291 c 0,-0.4986 -0.1174,-0.9649 -0.3725,-1.3671 -0.2545,-0.4181 -0.627,-0.7398 -1.0774,-0.9811 -0.4508,-0.2415 -0.9803,-0.3699 -1.5874,-0.3699 h -0.51 c -0.5876,0 -1.1168,0.1284 -1.5676,0.3699 -0.4504,0.2413 -0.8036,0.563 -1.0581,0.9811 -0.2551,0.4022 -0.3921,0.8685 -0.3921,1.3671 v 5.5815 2.6538 c 0,0.0805 0.0389,0.161 0.1177,0.225 0.0587,0.0482 0.1564,0.0805 0.2548,0.0805 h 1.3127 c 0.0981,0 0.1965,-0.0323 0.2747,-0.0805 0.0587,-0.064 0.0978,-0.1445 0.0978,-0.225 v -3.5062 -4.5037 c 0,-0.3699 0.0981,-0.6596 0.3135,-0.9009 0.2157,-0.2412 0.5094,-0.3537 0.9017,-0.3537 0.4113,0 0.7053,0.1125 0.921,0.3537 0.1959,0.2413 0.2939,0.531 0.2939,0.9009 v 5.3561 2.6538 c 0,0.0805 0.0389,0.161 0.1177,0.225 0.0589,0.0482 0.1565,0.0805 0.2548,0.0805 z m 7.9177,-3.6992 c 0,-0.4666 -0.1377,-0.8685 -0.4314,-1.1903 -0.2939,-0.3217 -0.6857,-0.5629 -1.1761,-0.7401 0.4904,-0.1769 0.8822,-0.4181 1.1761,-0.7398 0.2937,-0.3218 0.4314,-0.7237 0.4314,-1.1903 v -2.6056 -0.788 c 0,-0.0805 -0.0396,-0.1607 -0.098,-0.2092 -0.0788,-0.0641 -0.1769,-0.0964 -0.2744,-0.0964 h -1.3329 c -0.0981,0 -0.1956,0.0323 -0.2545,0.0964 -0.0788,0.0485 -0.118,0.1287 -0.118,0.2092 v 0.788 0.3056 2.4772 c -0.0195,0.3056 -0.1763,0.5306 -0.4504,0.6755 -0.2747,0.1448 -0.627,0.225 -1.0584,0.225 h -0.921 v -4.4713 c 0,-0.0805 -0.0391,-0.1607 -0.0981,-0.2092 -0.0782,-0.0641 -0.1763,-0.0964 -0.2744,-0.0964 h -1.313 c -0.0981,0 -0.1959,0.0323 -0.2545,0.0964 -0.0789,0.0485 -0.118,0.1287 -0.118,0.2092 v 10.6478 c 0,0.0805 0.0391,0.161 0.118,0.225 0.0586,0.0482 0.1564,0.0805 0.2545,0.0805 h 0.5097 1.1758 1.6265 c 0.9213,0 1.6461,-0.1766 2.1362,-0.5306 0.4901,-0.3699 0.7449,-0.917 0.7449,-1.6407 z m -4.5076,2.0103 v -3.088 h 0.921 c 0.4314,0 0.7837,0.0802 1.0584,0.2251 0.2741,0.1448 0.4309,0.3699 0.4504,0.6755 v 1.5766 c -0.0195,0.2732 -0.1564,0.4501 -0.3721,0.5148 -0.2353,0.064 -0.6078,0.096 -1.1367,0.096 z m 13.5221,1.6889 c 0.6072,0 1.1367,-0.1125 1.5874,-0.3537 0.4507,-0.2413 0.8232,-0.5792 1.0777,-0.9814 0.2549,-0.4181 0.3725,-0.8844 0.3725,-1.383 v -0.2254 -0.0802 -0.6755 c 0,-0.0805 -0.0394,-0.1448 -0.0981,-0.193 -0.0782,-0.0644 -0.1766,-0.0967 -0.2744,-0.0967 h -1.3325 c -0.0981,0 -0.1959,0.0323 -0.2546,0.0967 -0.0788,0.0482 -0.1179,0.1125 -0.1179,0.193 v 0.6755 0.0802 c 0,0.37 -0.0981,0.6597 -0.294,0.9009 -0.2154,0.2412 -0.5096,0.3537 -0.9209,0.3537 -0.3924,0 -0.686,-0.1125 -0.9015,-0.3537 -0.2157,-0.2412 -0.314,-0.5309 -0.314,-0.9009 v -5.3719 c 0,-0.3699 0.0983,-0.6596 0.314,-0.9009 0.2155,-0.2412 0.5091,-0.3537 0.9015,-0.3537 0.4113,0 0.7055,0.1125 0.9209,0.3537 0.1959,0.2413 0.294,0.531 0.294,0.9009 v 0.0159 1.2707 h -0.9601 c -0.0981,0 -0.1763,0.0321 -0.2353,0.0964 -0.0782,0.0482 -0.1176,0.1287 -0.1176,0.2092 v 1.0936 c 0,0.0805 0.0394,0.161 0.1176,0.2254 0.059,0.0482 0.1372,0.0802 0.2353,0.0802 h 2.2144 0.4507 c 0.0978,0 0.1962,-0.032 0.2744,-0.0802 0.0587,-0.0644 0.0981,-0.1449 0.0981,-0.2254 v -2.6699 -0.1126 -0.1287 c 0,-0.4986 -0.1176,-0.9649 -0.3725,-1.3671 -0.2545,-0.4181 -0.627,-0.7398 -1.0777,-0.9811 -0.4507,-0.2415 -0.9802,-0.3699 -1.5874,-0.3699 h -0.51 c -0.5879,0 -1.1165,0.1284 -1.5672,0.3699 -0.451,0.2413 -0.8037,0.563 -1.0588,0.9811 -0.2545,0.4022 -0.3914,0.8685 -0.3914,1.3671 v 5.8227 c 0,0.4986 0.1369,0.9649 0.3914,1.383 0.2551,0.4022 0.6078,0.7401 1.0588,0.9814 0.4507,0.2412 0.9793,0.3537 1.5672,0.3537 z m 11.484,-10.9856 c 0,-0.0803 -0.0196,-0.1449 -0.0785,-0.1928 -0.0587,-0.0482 -0.1375,-0.0805 -0.2353,-0.0805 h -1.3326 c -0.098,0 -0.1956,0.0323 -0.2744,0.0964 -0.0782,0.0485 -0.1372,0.1287 -0.1564,0.2092 l -0.2744,1.4476 h -2.7828 l -0.275,-1.4476 c -0.0192,-0.0805 -0.0584,-0.1607 -0.1369,-0.2092 -0.0782,-0.0641 -0.1766,-0.0964 -0.2744,-0.0964 h -1.3325 c -0.0981,0 -0.1763,0.0323 -0.2353,0.0964 -0.0587,0.0485 -0.0981,0.1287 -0.0782,0.2092 l 2.0573,10.6478 c 0.0202,0.0805 0.059,0.161 0.1571,0.225 0.0782,0.0482 0.1766,0.0805 0.2744,0.0805 h 0.7642 0.9405 0.7645 c 0.0981,0 0.1959,-0.0323 0.2943,-0.0805 0.0782,-0.064 0.1173,-0.1445 0.1372,-0.225 l 2.0772,-10.6478 z m -2.6853,3.185 -1.0579,5.3878 -1.0584,-5.3878 z m 6.8987,7.8006 c 0.6078,0 1.1755,-0.0963 1.6858,-0.3055 0.5094,-0.2092 0.9207,-0.5148 1.2146,-0.8847 0.294,-0.37 0.4315,-0.8039 0.4315,-1.2867 v -6.3051 c 0,-0.4827 -0.1375,-0.9167 -0.4315,-1.2866 -0.2939,-0.37 -0.7052,-0.6597 -1.2146,-0.8689 -0.5103,-0.2089 -1.078,-0.3214 -1.6858,-0.3214 h -1.1761 -1.1752 -0.5097 c -0.0981,0 -0.1959,0.0323 -0.2548,0.0964 -0.0786,0.0485 -0.1177,0.1287 -0.1177,0.2092 v 10.6478 c 0,0.0805 0.0391,0.161 0.1177,0.225 0.0589,0.0482 0.1567,0.0805 0.2548,0.0805 h 0.5097 1.1752 z m 1.2543,-2.6056 c -0.0198,0.3059 -0.1763,0.531 -0.4504,0.6917 -0.2942,0.1448 -0.6471,0.225 -1.0587,0.225 h -0.9213 v -7.8811 h 0.9213 c 0.4116,0 0.7645,0.0802 1.0587,0.2412 0.2741,0.1446 0.4306,0.3696 0.4504,0.6755 z m 6.5849,2.6056 c 0.6072,0 1.1364,-0.1125 1.5871,-0.3537 0.451,-0.2413 0.8232,-0.5792 1.0781,-0.9814 0.2548,-0.4181 0.3721,-0.8844 0.3721,-1.383 v -0.2254 -0.0802 -0.6755 c 0,-0.0805 -0.0391,-0.1448 -0.098,-0.193 -0.0783,-0.0644 -0.1763,-0.0967 -0.2741,-0.0967 h -1.3326 c -0.0981,0 -0.1962,0.0323 -0.2548,0.0967 -0.0786,0.0482 -0.1177,0.1125 -0.1177,0.193 v 0.6755 0.0802 c 0,0.37 -0.0981,0.6597 -0.2942,0.9009 -0.2152,0.2412 -0.5094,0.3537 -0.9207,0.3537 -0.3923,0 -0.686,-0.1125 -0.902,-0.3537 -0.2154,-0.2412 -0.3135,-0.5309 -0.3135,-0.9009 v -5.3719 c 0,-0.3699 0.0981,-0.6596 0.3135,-0.9009 0.216,-0.2412 0.5097,-0.3537 0.902,-0.3537 0.4113,0 0.7055,0.1125 0.9207,0.3537 0.1961,0.2413 0.2942,0.531 0.2942,0.9009 v 0.0159 1.2707 h -0.9601 c -0.0981,0 -0.1766,0.0321 -0.2353,0.0964 -0.0785,0.0482 -0.1176,0.1287 -0.1176,0.2092 v 1.0936 c 0,0.0805 0.0391,0.161 0.1176,0.2254 0.0587,0.0482 0.1372,0.0802 0.2353,0.0802 h 2.2144 0.4508 c 0.0978,0 0.1958,-0.032 0.2741,-0.0802 0.0589,-0.0644 0.098,-0.1449 0.098,-0.2254 v -2.6699 -0.1126 -0.1287 c 0,-0.4986 -0.1173,-0.9649 -0.3721,-1.3671 -0.2549,-0.4181 -0.6271,-0.7398 -1.0781,-0.9811 -0.4507,-0.2415 -0.9799,-0.3699 -1.5871,-0.3699 h -0.5102 c -0.5876,0 -1.1166,0.1284 -1.5673,0.3699 -0.4507,0.2413 -0.8036,0.563 -1.0584,0.9811 -0.2546,0.4022 -0.3918,0.8685 -0.3918,1.3671 v 5.8227 c 0,0.4986 0.1372,0.9649 0.3918,1.383 0.2548,0.4022 0.6077,0.7401 1.0584,0.9814 0.4507,0.2412 0.9797,0.3537 1.5673,0.3537 z m 6.0747,-1.6889 v -3.088 h 2.8029 c 0.0978,0 0.1958,-0.0323 0.2741,-0.0805 0.0589,-0.0644 0.0981,-0.1446 0.0981,-0.2251 v -1.0939 c 0,-0.0805 -0.0392,-0.1607 -0.0981,-0.2089 -0.0783,-0.0643 -0.1763,-0.0967 -0.2741,-0.0967 h -2.8029 v -3.088 h 3.5472 c 0.0981,0 0.1965,-0.0323 0.2747,-0.0805 0.0587,-0.0644 0.0978,-0.1284 0.0978,-0.2092 v -1.0936 c 0,-0.0805 -0.0391,-0.1607 -0.0978,-0.2092 -0.0782,-0.0641 -0.1766,-0.0964 -0.2747,-0.0964 h -3.5472 -0.9601 -0.7248 c -0.0984,0 -0.1962,0.0323 -0.2552,0.0964 -0.0785,0.0485 -0.1173,0.1287 -0.1173,0.2092 v 10.6478 c 0,0.0805 0.0388,0.161 0.1173,0.225 0.059,0.0482 0.1568,0.0805 0.2552,0.0805 h 0.7248 0.9601 3.5472 c 0.0981,0 0.1965,-0.0323 0.2747,-0.0805 0.0587,-0.064 0.0978,-0.1445 0.0978,-0.225 v -1.0937 c 0,-0.0805 -0.0391,-0.1448 -0.0978,-0.193 -0.0782,-0.0643 -0.1766,-0.0967 -0.2747,-0.0967 z m 11.6212,1.6889 c 0.0986,0 0.1961,-0.0323 0.2744,-0.0805 0.0589,-0.064 0.098,-0.1445 0.098,-0.225 v -1.0937 c 0,-0.0805 -0.0391,-0.1448 -0.098,-0.193 -0.0783,-0.0643 -0.1758,-0.0967 -0.2744,-0.0967 h -2.1359 v -9.2644 c 0,-0.0805 -0.0389,-0.1607 -0.0978,-0.2092 -0.0788,-0.0641 -0.1763,-0.0964 -0.2744,-0.0964 h -1.3329 c -0.0978,0 -0.1959,0.0323 -0.2545,0.0964 -0.0783,0.0485 -0.118,0.1287 -0.118,0.2092 v 9.2644 h -2.1356 c -0.0981,0 -0.1961,0.0324 -0.2548,0.0967 -0.0785,0.0482 -0.1176,0.1125 -0.1176,0.193 v 1.0937 c 0,0.0805 0.0391,0.161 0.1176,0.225 0.0587,0.0482 0.1567,0.0805 0.2548,0.0805 h 4.2132 z m 4.8801,0 c 0.6075,0 1.137,-0.1125 1.5874,-0.3537 0.4507,-0.2413 0.8232,-0.5792 1.078,-0.9814 0.2546,-0.4181 0.3725,-0.8844 0.3725,-1.383 v -0.2254 -0.0802 -0.0646 c 0,-0.0802 -0.0394,-0.1443 -0.0981,-0.2089 -0.0782,-0.0644 -0.1763,-0.0964 -0.2744,-0.0964 h -1.3326 c -0.098,0 -0.1766,0.032 -0.2548,0.0964 -0.0785,0.0646 -0.1176,0.1287 -0.1176,0.2089 v 0.0646 0.0802 c 0,0.37 -0.0981,0.6597 -0.294,0.9009 -0.2154,0.2412 -0.5097,0.3537 -0.921,0.3537 -0.3923,0 -0.6857,-0.1125 -0.9017,-0.3537 -0.2154,-0.2412 -0.3135,-0.5309 -0.3135,-0.9009 v -0.4181 -0.0482 -0.032 c 0,-0.4022 0.0981,-0.7078 0.294,-0.917 0.1567,-0.1449 0.3331,-0.2733 0.5488,-0.3699 0.1961,-0.1126 0.4507,-0.2089 0.7642,-0.3215 0.5485,-0.2092 1.019,-0.4184 1.4111,-0.6437 0.3724,-0.2251 0.7449,-0.563 1.078,-1.0293 0.1372,-0.1769 0.2353,-0.4019 0.3135,-0.7075 0.0587,-0.3059 0.0981,-0.5309 0.0981,-0.6758 v -0.0161 -0.048 -0.3702 c 0,-0.4986 -0.1179,-0.9649 -0.3725,-1.3671 -0.2548,-0.4181 -0.6273,-0.7398 -1.078,-0.9811 -0.4504,-0.2415 -0.9799,-0.3699 -1.5874,-0.3699 h -0.5097 c -0.5879,0 -1.1168,0.1284 -1.5675,0.3699 -0.4507,0.2413 -0.8037,0.563 -1.0582,0.9811 -0.2551,0.4022 -0.392,0.8685 -0.392,1.3671 v 0.1608 0.1448 c 0,0.0805 0.0388,0.1607 0.1176,0.2254 0.059,0.0482 0.1565,0.0802 0.2545,0.0802 h 1.3131 c 0.098,0 0.1961,-0.032 0.2744,-0.0802 0.0589,-0.0647 0.098,-0.1449 0.098,-0.2254 v -0.0802 c 0,-0.3699 0.0981,-0.6596 0.3135,-0.9009 0.216,-0.2412 0.5094,-0.3537 0.9017,-0.3537 0.4113,0 0.7056,0.1125 0.921,0.3537 0.1959,0.2413 0.294,0.531 0.294,0.9009 v 0.1448 0.048 0.0161 c 0,0.1449 -0.0199,0.3376 -0.0785,0.5468 -0.0584,0.2092 -0.1764,0.4022 -0.3334,0.5471 -0.1565,0.1607 -0.3523,0.2894 -0.5681,0.4022 -0.2154,0.0961 -0.5094,0.1928 -0.8623,0.3053 -0.6074,0.1772 -1.0975,0.3861 -1.47,0.6112 -0.3918,0.2253 -0.7053,0.5791 -0.9601,1.0777 -0.0785,0.161 -0.1369,0.3541 -0.1568,0.595 -0.0391,0.2254 -0.0586,0.4187 -0.0586,0.5794 v 0.032 0.0482 0.6435 c 0,0.4986 0.1369,0.9649 0.392,1.383 0.2545,0.4022 0.6075,0.7401 1.0582,0.9814 0.4507,0.2412 0.9796,0.3537 1.5675,0.3537 z" /></g></g></svg>